<svg width="19" height="22" viewBox="0 0 19 22" fill="none" xmlns="http://www.w3.org/2000/svg">
<path d="M18.3626 3.41284H13.8744V2.13303C13.8737 1.56751 13.6586 1.02535 13.2761 0.625466C12.8936 0.225587 12.375 0.000649223 11.8341 0H6.93738C6.39646 0.000649223 5.87786 0.225587 5.49537 0.625466C5.11288 1.02535 4.89772 1.56751 4.8971 2.13303V3.41284H0.408057C0.299834 3.41284 0.196043 3.45779 0.119517 3.53779C0.0429917 3.6178 0 3.72631 0 3.83945C0 3.95259 0.0429917 4.0611 0.119517 4.14111C0.196043 4.22111 0.299834 4.26606 0.408057 4.26606H1.63223V20.0505C1.63261 20.3898 1.7617 20.7151 1.9912 20.955C2.22069 21.1949 2.53185 21.3299 2.8564 21.3303H15.9142C16.2388 21.3299 16.5499 21.1949 16.7794 20.955C17.0089 20.7151 17.138 20.3898 17.1384 20.0505V4.26606H18.3626C18.4708 4.26606 18.5746 4.22111 18.6511 4.14111C18.7276 4.0611 18.7706 3.95259 18.7706 3.83945C18.7706 3.72631 18.7276 3.6178 18.6511 3.53779C18.5746 3.45779 18.4708 3.41284 18.3626 3.41284ZM5.71321 2.13303C5.71359 1.79372 5.84269 1.46842 6.07218 1.2285C6.30168 0.98857 6.61283 0.853606 6.93738 0.853211H11.8341C12.1586 0.853606 12.4698 0.98857 12.6993 1.2285C12.9288 1.46842 13.0579 1.79372 13.0582 2.13303V3.41284H5.71321V2.13303ZM16.3223 20.0505C16.3222 20.1636 16.2791 20.272 16.2026 20.352C16.1261 20.4319 16.0224 20.4769 15.9142 20.4771H2.8564C2.74822 20.4769 2.64451 20.4319 2.56801 20.352C2.49151 20.272 2.44848 20.1636 2.44834 20.0505V4.26606H16.3223V20.0505ZM7.34544 8.95872V15.7844C7.34544 15.8975 7.30245 16.0061 7.22592 16.0861C7.1494 16.1661 7.04561 16.211 6.93738 16.211C6.82916 16.211 6.72537 16.1661 6.64884 16.0861C6.57232 16.0061 6.52933 15.8975 6.52933 15.7844V8.95872C6.52933 8.84557 6.57232 8.73706 6.64884 8.65706C6.72537 8.57705 6.82916 8.53211 6.93738 8.53211C7.04561 8.53211 7.1494 8.57705 7.22592 8.65706C7.30245 8.73706 7.34544 8.84557 7.34544 8.95872ZM12.2421 8.95872V15.7844C12.2421 15.8975 12.1991 16.0061 12.1226 16.0861C12.0461 16.1661 11.9423 16.211 11.8341 16.211C11.7258 16.211 11.6221 16.1661 11.5455 16.0861C11.469 16.0061 11.426 15.8975 11.426 15.7844V8.95872C11.426 8.84557 11.469 8.73706 11.5455 8.65706C11.6221 8.57705 11.7258 8.53211 11.8341 8.53211C11.9423 8.53211 12.0461 8.57705 12.1226 8.65706C12.1991 8.73706 12.2421 8.84557 12.2421 8.95872Z" fill="#181818"/>
</svg>
