<svg width="21" height="20" viewBox="0 0 21 20" fill="none" xmlns="http://www.w3.org/2000/svg">
<path d="M19.8695 4.12609L16.2524 0.49046C16.0134 0.252643 15.6899 0.119141 15.3527 0.119141C15.0156 0.119141 14.6921 0.252643 14.4531 0.49046L1.62978 13.2953L0.458986 18.3482C0.418598 18.5329 0.419982 18.7243 0.463039 18.9084C0.506095 19.0925 0.589736 19.2647 0.70785 19.4123C0.825965 19.5599 0.97557 19.6793 1.14574 19.7618C1.3159 19.8442 1.50233 19.8875 1.6914 19.8887C1.7795 19.8976 1.86827 19.8976 1.95637 19.8887L7.06474 18.7179L19.8695 5.92541C20.1074 5.68639 20.2409 5.36293 20.2409 5.02575C20.2409 4.68857 20.1074 4.36511 19.8695 4.12609ZM6.44853 17.6087L1.66059 18.6131L2.75128 13.9176L12.3456 4.36025L16.0429 8.05749L6.44853 17.6087ZM16.8686 7.16399L13.1714 3.46674L15.3158 1.33466L18.9514 5.03191L16.8686 7.16399Z" fill="#181818"/>
</svg>
