<svg width="25" height="16" viewBox="0 0 25 16" fill="none" xmlns="http://www.w3.org/2000/svg">
<path fill-rule="evenodd" clip-rule="evenodd" d="M-0.000334485 7.99998C-0.000334465 8.2357 0.093303 8.46176 0.259979 8.62843C0.426654 8.79511 0.652717 8.88875 0.888433 8.88875L21.8509 8.88875L16.257 14.4809C16.1744 14.5635 16.1088 14.6616 16.0641 14.7696C16.0194 14.8775 15.9963 14.9932 15.9963 15.1101C15.9963 15.227 16.0194 15.3427 16.0641 15.4507C16.1088 15.5586 16.1744 15.6567 16.257 15.7394C16.3396 15.822 16.4377 15.8875 16.5457 15.9323C16.6537 15.977 16.7694 16 16.8862 16C17.0031 16 17.1188 15.977 17.2268 15.9323C17.3347 15.8875 17.4328 15.822 17.5155 15.7394L24.6256 8.62922C24.7084 8.54667 24.774 8.44859 24.8188 8.34061C24.8637 8.23264 24.8867 8.11688 24.8867 7.99998C24.8867 7.88307 24.8637 7.76732 24.8188 7.65934C24.774 7.55137 24.7084 7.45329 24.6256 7.37073L17.5155 0.260599C17.4328 0.177965 17.3347 0.112416 17.2268 0.0676944C17.1188 0.0229737 17.0031 -4.31798e-05 16.8862 -4.31696e-05C16.7694 -4.31594e-05 16.6536 0.0229738 16.5457 0.0676944C16.4377 0.112416 16.3396 0.177965 16.257 0.260599C16.1743 0.343233 16.1088 0.441333 16.0641 0.549299C16.0194 0.657265 15.9963 0.772983 15.9963 0.889846C15.9963 1.00671 16.0194 1.12243 16.0641 1.23039C16.1088 1.33836 16.1743 1.43646 16.257 1.51909L21.8509 7.11121L0.888433 7.11121C0.652717 7.11121 0.426654 7.20485 0.259978 7.37153C0.0933029 7.5382 -0.000334506 7.76426 -0.000334485 7.99998Z" fill="#E9E7E7"/>
</svg>
