<svg width="32" height="25" viewBox="0 0 32 25" fill="none" xmlns="http://www.w3.org/2000/svg">
<path d="M10.2005 12.3509C10.2005 13.017 9.66935 13.5247 8.99589 13.5247C8.49217 13.5247 8.11985 13.2408 8.11985 12.7058C8.11985 12.0397 8.64 11.5046 9.30798 11.5046C9.81719 11.5046 10.2005 11.8158 10.2005 12.3509ZM4.4076 9.70292H4.15027C4.06814 9.70292 3.98601 9.75751 3.97506 9.85033L3.73962 11.3081L4.18859 11.2917C4.79087 11.2917 5.25627 11.2098 5.36578 10.5164C5.49171 9.78481 5.02631 9.70292 4.4076 9.70292ZM19.9574 9.70292H19.711C19.6125 9.70292 19.5468 9.75751 19.5358 9.85033L19.3059 11.3081L19.7439 11.2917C20.4557 11.2917 20.9484 11.1279 20.9484 10.3089C20.943 9.73022 20.4228 9.70292 19.9574 9.70292ZM31.5376 2.62165V21.8399C31.5376 23.2867 30.3605 24.4606 28.9095 24.4606H2.62814C1.17719 24.4606 0 23.2867 0 21.8399V2.62165C0 1.17482 1.17719 0.000976562 2.62814 0.000976562H28.9095C30.3605 0.000976562 31.5376 1.17482 31.5376 2.62165ZM7.02479 10.0141C7.02479 8.86758 6.13779 8.4854 5.12487 8.4854H2.93475C2.79787 8.4854 2.66099 8.59459 2.65004 8.742L1.75209 14.3164C1.73567 14.4256 1.81779 14.5348 1.9273 14.5348H2.9676C3.11544 14.5348 3.25232 14.3764 3.26874 14.2236L3.51513 12.7713C3.56989 12.3782 4.23787 12.5147 4.50068 12.5147C6.06662 12.5147 7.02479 11.5865 7.02479 10.0141ZM11.635 10.4946H10.5947C10.3866 10.4946 10.3757 10.7949 10.3647 10.9423C10.0471 10.4782 9.58722 10.3963 9.06707 10.3963C7.72563 10.3963 6.70175 11.5701 6.70175 12.8641C6.70175 13.9287 7.36973 14.6221 8.43741 14.6221C8.93019 14.6221 9.54342 14.3546 9.88836 13.9724C9.86099 14.0543 9.83361 14.229 9.83361 14.3109C9.83361 14.4365 9.88836 14.5293 10.0088 14.5293H10.9506C11.0984 14.5293 11.2243 14.371 11.2517 14.2181L11.8102 10.7075C11.8266 10.6038 11.7445 10.4946 11.635 10.4946ZM13.8525 15.8397L17.3402 10.7839C17.3676 10.7566 17.3676 10.7293 17.3676 10.6911C17.3676 10.5983 17.2855 10.5 17.1924 10.5H16.1411C16.0481 10.5 15.9495 10.5546 15.8948 10.6365L14.4438 12.7658L13.8415 10.7184C13.7977 10.5983 13.6773 10.5 13.5404 10.5H12.5165C12.4234 10.5 12.3413 10.5983 12.3413 10.6911C12.3413 10.7566 13.409 13.7923 13.5021 14.0816C13.3542 14.2891 12.3796 15.6431 12.3796 15.8069C12.3796 15.9052 12.4617 15.9816 12.5548 15.9816H13.6061C13.7046 15.9761 13.7977 15.9215 13.8525 15.8397ZM22.5746 10.0141C22.5746 8.86758 21.6876 8.4854 20.6747 8.4854H18.501C18.3532 8.4854 18.2163 8.59459 18.1998 8.742L17.3129 14.3109C17.3019 14.4201 17.384 14.5293 17.4881 14.5293H18.6105C18.72 14.5293 18.8021 14.4474 18.8295 14.3546L19.0759 12.7713C19.1306 12.3782 19.7986 12.5147 20.0614 12.5147C21.6164 12.5147 22.5746 11.5865 22.5746 10.0141ZM27.1848 10.4946H26.1445C25.9364 10.4946 25.9255 10.7949 25.909 10.9423C25.6079 10.4782 25.1425 10.3963 24.6114 10.3963C23.27 10.3963 22.2461 11.5701 22.2461 12.8641C22.2461 13.9287 22.9141 14.6221 23.9817 14.6221C24.4909 14.6221 25.1042 14.3546 25.4327 13.9724C25.4163 14.0543 25.3779 14.229 25.3779 14.3109C25.3779 14.4365 25.4327 14.5293 25.5532 14.5293H26.5004C26.6482 14.5293 26.7741 14.371 26.8015 14.2181L27.36 10.7075C27.3764 10.6038 27.2943 10.4946 27.1848 10.4946ZM29.7855 8.67649C29.7855 8.56729 29.7034 8.4854 29.6103 8.4854H28.5974C28.5153 8.4854 28.4332 8.55091 28.4222 8.63281L27.5352 14.3109L27.5188 14.3382C27.5188 14.4365 27.6009 14.5293 27.7104 14.5293H28.6138C28.7507 14.5293 28.8876 14.371 28.8986 14.2181L29.7855 8.69287V8.67649ZM24.8578 11.5046C24.1898 11.5046 23.6697 12.0342 23.6697 12.7058C23.6697 13.2354 24.0529 13.5247 24.5567 13.5247C25.2137 13.5247 25.7448 13.0224 25.7448 12.3509C25.7503 11.8158 25.367 11.5046 24.8578 11.5046Z" fill="#E9E7E7"/>
</svg>
