<svg width="32" height="25" viewBox="0 0 32 25" fill="none" xmlns="http://www.w3.org/2000/svg">
<path d="M25.7393 10.8865C25.7393 10.8865 26.1554 12.9185 26.2485 13.3446H24.4198C24.6005 12.8584 25.2958 10.9684 25.2958 10.9684C25.2849 10.9848 25.4765 10.4714 25.586 10.1545L25.7393 10.8865ZM31.5376 2.62194V21.8495C31.5376 23.297 30.3605 24.4714 28.9095 24.4714H2.62814C1.17719 24.4714 0 23.297 0 21.8495V2.62194C0 1.17441 1.17719 0 2.62814 0H28.9095C30.3605 0 31.5376 1.17441 31.5376 2.62194ZM8.34981 16.3434L11.8102 7.86581H9.48319L7.33141 13.6559L7.09597 12.4815L6.32943 8.58139C6.2035 8.04061 5.81475 7.88766 5.33293 7.86581H1.79042L1.75209 8.03515C2.61719 8.25364 3.3892 8.57046 4.06266 8.96921L6.02281 16.3434H8.34981ZM13.5185 16.3543L14.8982 7.86581H12.6972L11.3229 16.3543H13.5185ZM21.1784 13.5795C21.1894 12.6126 20.598 11.8752 19.3332 11.2689C18.5612 10.881 18.0903 10.6188 18.0903 10.2201C18.1013 9.85958 18.49 9.48814 19.3551 9.48814C20.0724 9.47175 20.598 9.64109 20.9922 9.81042L21.1894 9.90328L21.4905 8.06792C21.0579 7.89859 20.3681 7.70741 19.5194 7.70741C17.3457 7.70741 15.8181 8.86543 15.8071 10.5151C15.7907 11.7332 16.9022 12.4105 17.7344 12.8202C18.5831 13.2353 18.8733 13.5084 18.8733 13.8744C18.8624 14.4425 18.1834 14.7047 17.5538 14.7047C16.6777 14.7047 16.2068 14.5681 15.4896 14.2513L15.1994 14.1148L14.8928 16.0211C15.4075 16.256 16.3601 16.4636 17.3457 16.4745C19.6563 16.48 21.162 15.3383 21.1784 13.5795ZM28.9095 16.3543L27.1355 7.86581H25.4327C24.9071 7.86581 24.5074 8.01876 24.2829 8.57046L21.0141 16.3543H23.3247C23.3247 16.3543 23.7025 15.3056 23.7846 15.0816H26.6099C26.6756 15.382 26.8727 16.3543 26.8727 16.3543H28.9095Z" fill="#E9E7E7"/>
</svg>
