<svg width="32" height="25" viewBox="0 0 32 25" fill="none" xmlns="http://www.w3.org/2000/svg">
<path d="M26.4405 20.6575C26.4405 21.03 26.1892 21.2981 25.8275 21.2981C25.455 21.2981 25.2145 21.0133 25.2145 20.6575C25.2145 20.3017 25.455 20.0169 25.8275 20.0169C26.1892 20.0169 26.4405 20.3017 26.4405 20.6575ZM9.42355 20.0169C9.03427 20.0169 8.81055 20.3017 8.81055 20.6575C8.81055 21.0133 9.03525 21.2981 9.42355 21.2981C9.77932 21.2981 10.0198 21.03 10.0198 20.6575C10.0139 20.3017 9.77932 20.0169 9.42355 20.0169ZM15.857 20.0011C15.5614 20.0011 15.38 20.1923 15.3367 20.4771H16.3823C16.333 20.1647 16.1418 20.0011 15.857 20.0011ZM21.7593 20.0169C21.3868 20.0169 21.1631 20.3017 21.1631 20.6575C21.1631 21.0133 21.3878 21.2981 21.7593 21.2981C22.1318 21.2981 22.3723 21.03 22.3723 20.6575C22.3723 20.3017 22.1308 20.0169 21.7593 20.0169ZM27.5571 21.4459C27.5571 21.4627 27.5739 21.4735 27.5739 21.506C27.5739 21.5228 27.5571 21.5336 27.5571 21.5661C27.5404 21.5829 27.5404 21.5937 27.5295 21.6095C27.5128 21.6263 27.5019 21.6371 27.4694 21.6371C27.4527 21.6539 27.4418 21.6539 27.4093 21.6539C27.3925 21.6539 27.3817 21.6539 27.3492 21.6371C27.3324 21.6371 27.3216 21.6203 27.3058 21.6095C27.2891 21.5928 27.2782 21.5819 27.2782 21.5661C27.2615 21.5385 27.2615 21.5228 27.2615 21.506C27.2615 21.4784 27.2615 21.4627 27.2782 21.4459C27.2782 21.4183 27.295 21.4025 27.3058 21.3858C27.3226 21.369 27.3334 21.369 27.3492 21.3582C27.3768 21.3414 27.3925 21.3414 27.4093 21.3414C27.4369 21.3414 27.4527 21.3414 27.4694 21.3582C27.497 21.374 27.5128 21.374 27.5295 21.3858C27.5463 21.3976 27.5404 21.4183 27.5571 21.4459ZM27.4369 21.5228C27.4645 21.5228 27.4645 21.506 27.4803 21.506C27.497 21.4893 27.497 21.4784 27.497 21.4627C27.497 21.4469 27.497 21.4351 27.4803 21.4193C27.4645 21.4193 27.4527 21.4025 27.4201 21.4025H27.3324V21.5937H27.3758V21.5169H27.3925L27.4527 21.5937H27.496L27.4369 21.5228ZM31.5376 2.62838V21.9012C31.5374 22.5982 31.2604 23.2666 30.7675 23.7595C30.2747 24.2523 29.6063 24.5293 28.9093 24.5296H2.62838C1.93137 24.5293 1.26298 24.2523 0.770124 23.7595C0.277263 23.2666 0.000261199 22.5982 0 21.9012V2.62838C0.000261199 1.93137 0.277263 1.26298 0.770124 0.770124C1.26298 0.277263 1.93137 0.000261199 2.62838 0H28.9093C29.6063 0.000261199 30.2747 0.277263 30.7675 0.770124C31.2604 1.26298 31.5374 1.93137 31.5376 2.62838ZM3.5055 10.2711C3.5055 14.4596 6.90554 17.8537 11.0881 17.8537C12.5776 17.8494 14.0335 17.4099 15.2766 16.5893C11.2852 13.343 11.3128 7.21598 15.2766 3.96869C14.0347 3.14542 12.5781 2.70569 11.0881 2.70427C6.90554 2.69934 3.5055 6.0984 3.5055 10.2711ZM15.7693 16.2286C19.6296 13.2168 19.6128 7.34804 15.7693 4.32052C11.9258 7.34804 11.909 13.2227 15.7693 16.2286ZM7.97779 20.4062C7.97779 19.9302 7.66538 19.6178 7.17262 19.601C6.92032 19.601 6.65226 19.6779 6.47191 19.9568C6.34084 19.7321 6.11614 19.601 5.80373 19.601C5.69021 19.5993 5.57798 19.6253 5.47681 19.6768C5.37565 19.7284 5.2886 19.8038 5.22326 19.8967V19.6562H4.77485V21.6657H5.22326C5.22326 20.6309 5.08627 20.012 5.71602 20.012C6.27481 20.012 6.16542 20.5708 6.16542 21.6657H6.59806C6.59806 20.6634 6.46107 20.012 7.09082 20.012C7.64961 20.012 7.53923 20.5599 7.53923 21.6657H7.98863V20.4062H7.97779ZM10.4367 19.6562H10.004V19.8967C9.92744 19.8011 9.82971 19.7247 9.71854 19.6734C9.60738 19.6221 9.48581 19.5973 9.36343 19.601C8.79971 19.601 8.36707 20.0504 8.36707 20.6575C8.36707 21.2705 8.79971 21.714 9.36343 21.714C9.64825 21.714 9.85619 21.6095 10.004 21.4183V21.6706H10.4367V19.6562ZM12.6541 21.0576C12.6541 20.2367 11.4005 20.6082 11.4005 20.2248C11.4005 19.9124 12.0519 19.9627 12.4136 20.1647L12.594 19.809C12.0795 19.4749 10.9403 19.4808 10.9403 20.2584C10.9403 21.0409 12.1938 20.7127 12.1938 21.0793C12.1938 21.4242 11.4547 21.3966 11.0605 21.1227L10.8693 21.4676C11.4823 21.8835 12.6541 21.7958 12.6541 21.0566V21.0576ZM14.5926 21.5661L14.4724 21.1936C14.2644 21.3079 13.8042 21.4341 13.8042 20.9689V20.0603H14.5216V19.6552H13.8042V19.0422H13.3548V19.6552H12.9389V20.0553H13.3548V20.9699C13.3548 21.9337 14.3019 21.7583 14.5926 21.5661ZM15.3199 20.8329H16.8258C16.8258 19.9459 16.4207 19.5951 15.8728 19.5951C15.2923 19.5951 14.8764 20.0277 14.8764 20.6516C14.8764 21.7741 16.1142 21.9603 16.7272 21.4292L16.5193 21.101C16.0926 21.4518 15.4461 21.4183 15.3199 20.8329ZM18.5564 19.6562C18.3051 19.5468 17.9217 19.5576 17.7246 19.8967V19.6562H17.2752V21.6657H17.7246V20.5323C17.7246 19.8967 18.2449 19.9795 18.4253 20.0721L18.5564 19.6562ZM19.1368 20.6575C19.1368 20.0327 19.7725 19.8306 20.2702 20.1973L20.4781 19.8415C19.8425 19.3438 18.6874 19.6168 18.6874 20.6624C18.6874 21.7465 19.9134 21.9653 20.4781 21.4834L20.2702 21.1276C19.7666 21.4834 19.1368 21.2705 19.1368 20.6565V20.6575ZM22.7882 19.6562H22.3388V19.8967C21.8845 19.2945 20.7018 19.6345 20.7018 20.6575C20.7018 21.709 21.9278 22.0096 22.3388 21.4183V21.6706H22.7882V19.6562ZM24.6331 19.6562C24.502 19.5902 24.0309 19.4975 23.8013 19.8967V19.6562H23.3687V21.6657H23.8013V20.5323C23.8013 19.9302 24.2941 19.9686 24.502 20.0721L24.6331 19.6562ZM26.8397 18.8402H26.407V19.8967C25.9576 19.3004 24.7701 19.6178 24.7701 20.6575C24.7701 21.7199 26.002 22.0037 26.407 21.4183V21.6706H26.8397V18.8402ZM27.2565 14.7286V14.9809H27.2999V14.7286H27.4034V14.6852H27.1511V14.7286H27.2565ZM27.6172 21.506C27.6172 21.4784 27.6172 21.4459 27.6015 21.4183C27.5847 21.4016 27.5739 21.375 27.5581 21.3582C27.5423 21.3414 27.5147 21.3306 27.498 21.3148C27.4704 21.3148 27.4379 21.2981 27.4103 21.2981C27.3935 21.2981 27.3669 21.3148 27.3334 21.3148C27.3118 21.327 27.2916 21.3415 27.2733 21.3582C27.2457 21.374 27.2299 21.4016 27.2299 21.4183C27.2132 21.4459 27.2132 21.4784 27.2132 21.506C27.2132 21.5228 27.2132 21.5494 27.2299 21.5829C27.2299 21.5996 27.2467 21.6263 27.2733 21.643C27.2899 21.6617 27.3104 21.6765 27.3334 21.6864C27.361 21.7021 27.3935 21.7021 27.4103 21.7021C27.4379 21.7021 27.4704 21.7021 27.498 21.6864C27.5147 21.6696 27.5414 21.6588 27.5581 21.643C27.5749 21.6272 27.5857 21.5996 27.6015 21.5829C27.6172 21.5504 27.6172 21.5228 27.6172 21.506ZM27.7927 14.6793H27.7158L27.6281 14.8705L27.5404 14.6793H27.4635V14.975H27.5069V14.7503L27.5946 14.9415H27.6547L27.7316 14.7503V14.975H27.7917L27.7927 14.6793ZM28.0331 10.2711C28.0331 6.0984 24.6331 2.69934 20.4505 2.69934C18.9609 2.70307 17.5049 3.14261 16.2621 3.96376C20.2101 7.21105 20.2702 13.3538 16.2621 16.5843C17.5046 17.4062 18.9608 17.8458 20.4505 17.8488C24.6331 17.8547 28.0331 14.4596 28.0331 10.2711Z" fill="#E9E7E7"/>
</svg>
