<svg width="18" height="18" viewBox="0 0 18 18" fill="none" xmlns="http://www.w3.org/2000/svg">
<path d="M9 0.0625C4.072 0.0625 0.0625 4.072 0.0625 9C0.0625 13.928 4.072 17.9375 9 17.9375C13.928 17.9375 17.9375 13.928 17.9375 9C17.9375 4.072 13.928 0.0625 9 0.0625ZM9 1.4375C13.1841 1.4375 16.5625 4.81588 16.5625 9C16.5625 13.1841 13.1841 16.5625 9 16.5625C4.81588 16.5625 1.4375 13.1841 1.4375 9C1.4375 4.81588 4.81588 1.4375 9 1.4375ZM8.93538 4.875C6.65013 4.875 4.81038 6.71475 4.81038 9C4.81038 11.2852 6.65013 13.125 8.93538 13.125C10.5847 13.125 11.9948 12.1364 12.652 10.7401L11.4062 10.1605C10.9628 11.1024 10.0367 11.75 8.93538 11.75C7.36994 11.75 6.18538 10.5654 6.18538 9C6.18538 7.43456 7.36994 6.25 8.93538 6.25C10.0367 6.25 10.9635 6.89694 11.4062 7.84019L12.6527 7.25994C11.9941 5.86363 10.5847 4.875 8.93469 4.875H8.93538Z" fill="#181818"/>
</svg>
