<svg width="27" height="27" viewBox="0 0 27 27" fill="none" xmlns="http://www.w3.org/2000/svg">
<path d="M26.6666 13.3235C26.6648 10.7759 25.9331 8.28217 24.5581 6.13742C23.1832 3.99267 21.2226 2.28673 18.9084 1.2215C16.5941 0.156267 14.0232 -0.22366 11.4997 0.126686C8.97632 0.477032 6.6061 1.54298 4.66959 3.19838C2.73309 4.85377 1.31138 7.02931 0.572725 9.4675C-0.165927 11.9057 -0.190594 14.5045 0.501641 16.9562C1.19388 19.408 2.57403 21.6101 4.47876 23.302C6.38349 24.9939 8.73306 26.1046 11.2494 26.5028V17.1774H7.86369V13.3235H11.2494V10.3863C11.2494 7.04404 13.2405 5.1991 16.2864 5.1991C17.2862 5.21298 18.2838 5.29946 19.2711 5.45787V8.74083H17.5881C15.9328 8.74083 15.4153 9.76799 15.4153 10.8228V13.3235H19.1131L18.5205 17.1774H15.4153V26.5028C18.553 26.006 21.4103 24.4055 23.4729 21.9894C25.5356 19.5733 26.6681 16.5003 26.6666 13.3235Z" fill="#181818"/>
</svg>
