<svg width="21" height="19" viewBox="0 0 21 19" fill="none" xmlns="http://www.w3.org/2000/svg">
<path d="M20.084 17.7551C18.652 15.3272 16.3587 13.5062 13.645 12.6423C14.945 11.8808 15.9552 10.7204 16.5203 9.33908C17.0853 7.95779 17.1741 6.43209 16.773 4.99631C16.3719 3.56052 15.5031 2.29407 14.2999 1.39146C13.0968 0.488847 11.6259 0 10.1131 0C8.6004 0 7.12951 0.488847 5.92636 1.39146C4.72321 2.29407 3.85435 3.56052 3.45324 4.99631C3.05212 6.43209 3.14092 7.95779 3.70601 9.33908C4.2711 10.7204 5.28123 11.8808 6.58123 12.6423C3.86765 13.5062 1.57432 15.3271 0.142236 17.7549C0.0917619 17.8408 0.0589656 17.9356 0.0457195 18.0339C0.0324734 18.1323 0.039037 18.2323 0.0650355 18.3281C0.0910339 18.424 0.135958 18.5138 0.197243 18.5926C0.258528 18.6714 0.334974 18.7375 0.422215 18.7872C0.509457 18.8369 0.605786 18.8692 0.705702 18.8822C0.805618 18.8952 0.907165 18.8888 1.00454 18.8632C1.10192 18.8376 1.19323 18.7934 1.27325 18.733C1.35326 18.6727 1.42043 18.5975 1.4709 18.5116C2.34704 17.0186 3.60691 15.7789 5.12392 14.9169C6.64094 14.055 8.36167 13.6013 10.1132 13.6013C11.8648 13.6013 13.5855 14.0551 15.1025 14.9171C16.6195 15.779 17.8793 17.0188 18.7555 18.5118C18.8059 18.5976 18.8731 18.6729 18.9531 18.7332C19.0331 18.7935 19.1244 18.8377 19.2218 18.8633C19.3192 18.8889 19.4207 18.8954 19.5206 18.8823C19.6205 18.8693 19.7169 18.837 19.8041 18.7873C19.8913 18.7376 19.9678 18.6715 20.0291 18.5928C20.0903 18.514 20.1352 18.4241 20.1612 18.3283C20.1872 18.2324 20.1938 18.1325 20.1805 18.0341C20.1673 17.9358 20.1345 17.8409 20.084 17.7551ZM4.74086 6.80214C4.74086 5.75622 5.05594 4.73379 5.64624 3.86414C6.23655 2.99449 7.07558 2.31668 8.05722 1.91643C9.03887 1.51617 10.119 1.41145 11.1612 1.61549C12.2033 1.81954 13.1605 2.3232 13.9118 3.06278C14.6631 3.80235 15.1748 4.74463 15.3821 5.77045C15.5894 6.79628 15.483 7.85957 15.0764 8.82587C14.6698 9.79217 13.9812 10.6181 13.0977 11.1992C12.2143 11.7803 11.1756 12.0904 10.1131 12.0904C8.68878 12.0888 7.32328 11.5311 6.31614 10.5397C5.30901 9.54835 4.74249 8.20418 4.74086 6.80214Z" fill="#181818"/>
</svg>
