<svg width="19" height="20" viewBox="0 0 19 20" fill="none" xmlns="http://www.w3.org/2000/svg">
<path d="M9.62891 1.25C10.4577 1.25 11.2526 1.57924 11.8386 2.16529C12.4247 2.75134 12.7539 3.5462 12.7539 4.375V5H6.50391V4.375C6.50391 3.5462 6.83315 2.75134 7.4192 2.16529C8.00525 1.57924 8.80011 1.25 9.62891 1.25ZM14.0039 5V4.375C14.0039 3.21468 13.543 2.10188 12.7225 1.28141C11.902 0.460936 10.7892 0 9.62891 0C8.46859 0 7.35579 0.460936 6.53532 1.28141C5.71484 2.10188 5.25391 3.21468 5.25391 4.375V5H0.878906V17.5C0.878906 18.163 1.1423 18.7989 1.61114 19.2678C2.07998 19.7366 2.71587 20 3.37891 20H15.8789C16.5419 20 17.1778 19.7366 17.6467 19.2678C18.1155 18.7989 18.3789 18.163 18.3789 17.5V5H14.0039ZM2.12891 6.25H17.1289V17.5C17.1289 17.8315 16.9972 18.1495 16.7628 18.3839C16.5284 18.6183 16.2104 18.75 15.8789 18.75H3.37891C3.04739 18.75 2.72944 18.6183 2.49502 18.3839C2.2606 18.1495 2.12891 17.8315 2.12891 17.5V6.25Z" fill="#181818"/>
</svg>
