<svg width="21" height="19" viewBox="0 0 21 19" fill="none" xmlns="http://www.w3.org/2000/svg">
<path d="M12.876 12.7278L13.4859 12.3706C14.7269 11.6438 15.6902 10.5366 16.2289 9.21987C16.7675 7.90328 16.8521 6.44932 16.4698 5.08101C16.0875 3.71265 15.2592 2.50469 14.111 1.64328C12.9627 0.781813 11.5582 0.314815 10.1131 0.314815C8.66811 0.314815 7.26359 0.781813 6.11528 1.64328C4.96705 2.50469 4.13872 3.71264 3.75644 5.08101C3.37417 6.44932 3.45876 7.90328 3.99739 9.21987C4.53605 10.5366 5.49934 11.6438 6.74034 12.3706L7.35022 12.7278L6.67673 12.9422C4.03615 13.7829 1.8058 15.5544 0.413495 17.9147C0.38423 17.9645 0.365344 18.0193 0.357718 18.076C0.350079 18.1327 0.353855 18.1903 0.368873 18.2457C0.383895 18.3011 0.409924 18.3533 0.445711 18.3993C0.481503 18.4453 0.526396 18.4842 0.578015 18.5136C0.629638 18.543 0.686869 18.5622 0.746438 18.57C0.806018 18.5778 0.866554 18.5739 0.924524 18.5587C0.982492 18.5435 1.03657 18.5172 1.08373 18.4817C1.13082 18.4462 1.17004 18.4021 1.19939 18.3522C1.19942 18.3522 1.19946 18.3521 1.19949 18.3521L1.4709 18.5116L12.876 12.7278ZM12.876 12.7278L13.5495 12.9422M12.876 12.7278L13.5495 12.9422M13.5495 12.9422C16.1901 13.7829 18.4204 15.5544 19.8126 17.9146C19.842 17.9645 19.8609 18.0194 19.8686 18.0761C19.8762 18.1329 19.8724 18.1905 19.8574 18.2459L20.1612 18.3283M13.5495 12.9422L20.1612 18.3283M20.1612 18.3283L19.8574 18.2459C19.8424 18.3013 19.8164 18.3535 19.7806 18.3994C19.7448 18.4454 19.6999 18.4844 19.6483 18.5138C19.5967 18.5432 19.5394 18.5624 19.4799 18.5702C19.4203 18.5779 19.3598 18.5741 19.3018 18.5589C19.2438 18.5436 19.1898 18.5174 19.1426 18.4818C19.0955 18.4463 19.0562 18.4022 19.0269 18.3522L20.1612 18.3283ZM4.42604 6.80214L4.42605 6.80251C4.42777 8.28953 5.02867 9.71414 6.0953 10.7641C7.16175 11.8139 8.60664 12.4035 10.1127 12.4052H10.1131C11.2368 12.4052 12.3356 12.0772 13.2707 11.4622C14.2059 10.8471 14.9355 9.97236 15.3665 8.94797C15.7976 7.92353 15.9105 6.79597 15.6907 5.7081C15.4708 4.62026 14.9284 3.6217 14.1327 2.83842C13.337 2.0552 12.3239 1.52237 11.2216 1.30655C10.1194 1.09073 8.97692 1.20145 7.93836 1.62491C6.89976 2.04839 6.01126 2.76586 5.38577 3.68733C4.76024 4.60887 4.42605 5.69284 4.42604 6.80214Z" fill="#E9E7E7" stroke="#E9E7E7" stroke-width="0.62963"/>
</svg>
