<svg width="21" height="26" viewBox="0 0 21 26" fill="none" xmlns="http://www.w3.org/2000/svg">
<path d="M19.4152 11.642C19.5911 11.6419 19.7614 11.7036 19.8965 11.8162C20.0317 11.9288 20.123 12.0852 20.1547 12.2582L20.1667 12.3935V21.4109C20.1668 22.3648 19.8041 23.2831 19.1522 23.9794C18.5002 24.6758 17.6078 25.0981 16.6559 25.1606L16.4094 25.1682L4.38617 25.1682C3.43225 25.1683 2.51399 24.8056 1.81764 24.1536C1.12129 23.5017 0.698999 22.6092 0.636422 21.6574L0.628908 21.4109L0.628908 12.3935C0.628562 12.2057 0.698535 12.0246 0.825049 11.8858C0.951563 11.747 1.12545 11.6607 1.31246 11.6437C1.49948 11.6267 1.68607 11.6804 1.83549 11.7941C1.98491 11.9079 2.08633 12.0734 2.11979 12.2582L2.13181 12.3935L2.13181 21.4109C2.13184 21.9713 2.3406 22.5116 2.71737 22.9264C3.09415 23.3413 3.61193 23.6009 4.16975 23.6547L4.38617 23.6652L16.4094 23.6652C16.9696 23.6653 17.5097 23.4567 17.9245 23.0802C18.3393 22.7038 18.5991 22.1864 18.6533 21.6288L18.6638 21.4109V12.3935C18.6638 12.1942 18.7429 12.003 18.8839 11.8621C19.0248 11.7212 19.2159 11.642 19.4152 11.642ZM3.49044 6.96797L9.86577 0.589634C9.99029 0.465381 10.1545 0.388753 10.3297 0.3731C10.5049 0.357446 10.68 0.403758 10.8246 0.503969L10.9298 0.589634L17.3051 6.96646C17.4383 7.099 17.5169 7.2766 17.5256 7.46426C17.5343 7.65192 17.4724 7.83603 17.3521 7.9803C17.2318 8.12457 17.0618 8.21854 16.8756 8.24369C16.6894 8.26885 16.5006 8.22336 16.3463 8.11619L16.2426 8.02902L11.1492 2.93567L11.1492 16.9022C11.1493 17.0781 11.0877 17.2484 10.9751 17.3835C10.8625 17.5186 10.7061 17.6099 10.5331 17.6416L10.3978 17.6536C10.2219 17.6537 10.0516 17.5921 9.91648 17.4795C9.78136 17.3669 9.69002 17.2104 9.65837 17.0374L9.64634 16.9022L9.64634 2.93567L4.55149 8.03052C4.42706 8.15439 4.26318 8.23078 4.0883 8.24643C3.91342 8.26208 3.73859 8.216 3.59414 8.11619L3.48894 8.02902C3.36468 7.90449 3.28806 7.74032 3.2724 7.56511C3.25675 7.3899 3.30306 7.21474 3.40327 7.07016L3.49044 6.96646L9.86577 0.589634L3.49044 6.96797Z" fill="black"/>
</svg>
